<?xml version="1.0" encoding="UTF-8"?>
<svg id="Calque_1" data-name="Calque 1" xmlns="http://www.w3.org/2000/svg" viewBox="0 0 200 200">
  <defs>
    <style>
      .cls-1 {
        fill: #aeaeae;
      }

      .cls-2 {
        fill: silver;
      }
    </style>
  </defs>
  <rect class="cls-2" width="200" height="200"/>
  <g>
    <path class="cls-1" d="M58.54,96.24c0-11.33-.04-22.16,.02-32.99,.02-2.87,1.96-4.7,4.91-4.71,24.35-.03,48.7-.03,73.05,0,2.95,0,4.9,1.84,4.91,4.71,.05,18.68,.02,37.35,.02,56.28-.86,.09-1.64,.24-2.42,.24-13.41,.01-26.83,.13-40.24-.03-8.15-.1-12.96-4.62-12.88-12.89,4.38,0,8.78,.08,13.18-.02,4.7-.11,9.43-.12,14.1-.66,6.94-.8,12.3-7.1,12.2-14.08-.07-4.95,.92-10.05-1.9-14.69-2.63-4.32-6.48-6.91-11.39-7.1-8.24-.32-16.51-.14-24.76-.07-6.14,.05-12.67,6.5-12.73,12.93-.09,9.16-1.21,7.42,7.02,7.57,4.05,.07,4.06,0,4.15-3.99,.09-3.95,1.63-6.11,6.19-6.36,6.01-.32,12.08,.16,18.11,.51,2.35,.14,3.52,1.8,3.5,4.2-.02,1.75-.2,3.54,.04,5.26,.63,4.55-2.64,5.84-5.92,5.87-7.84,.06-15.68,.02-23.52,.02-8.44,0-16.87,0-25.64,0Z"/>
    <path class="cls-1" d="M141.45,129.78c0,2.63,.07,4.79-.02,6.95-.11,2.88-1.95,4.72-4.89,4.72-24.34,.03-48.67,.03-73.01,0-2.86,0-4.93-1.7-4.95-4.33-.1-9.98-.04-19.96-.04-30.1h15.09c1.21,3.88,1.85,7.86,3.63,11.23,3.9,7.34,10.46,11.3,18.73,11.46,13.92,.27,27.84,.07,41.76,.07h3.69Z"/>
  </g>
</svg>