<svg width="41" height="32" viewBox="0 0 41 32" fill="none" xmlns="http://www.w3.org/2000/svg">
<path d="M34.4414 8.97869C35.5968 8.97869 36.6893 8.97869 37.7821 8.97869C38.5482 8.97869 39.3147 8.97656 40.0808 8.9793C40.7796 8.98204 41.1175 9.38486 40.9632 10.0395C39.5288 16.1311 38.0966 22.2234 36.6531 28.3129C36.2174 30.1513 34.5894 31.393 32.6644 31.393C25.2343 31.3936 17.8045 31.393 10.3744 31.393H9.88878V29.8307C10.0568 29.8307 10.2295 29.8307 10.4021 29.8307C17.6954 29.8307 24.9884 29.8307 32.2817 29.8307C33.967 29.8307 34.7774 29.2212 35.1564 27.6287C36.4873 22.034 37.8098 16.4374 39.1342 10.8412C39.1523 10.765 39.1498 10.6841 39.1613 10.5598C39.0033 10.5531 38.8596 10.5416 38.7159 10.5416C29.7261 10.5406 20.736 10.5428 11.7462 10.5333C11.3943 10.533 11.2658 10.6262 11.1842 10.9736C9.61605 17.6639 8.02892 24.3502 6.45394 31.0389C6.39129 31.3056 6.29311 31.4116 5.99669 31.4C4.94597 31.3592 3.88217 31.4365 2.84579 31.3019C1.24276 31.094 0.00472381 29.61 0.00316535 28.0395C-0.0024451 22.8667 0.000983529 17.6937 0.00160691 12.521C0.00160691 12.4287 0.0100226 12.3368 0.0159447 12.2159H1.60027C1.60027 12.383 1.60027 12.5398 1.60027 12.6963C1.60027 17.6955 1.59934 22.6944 1.60121 27.6936C1.60152 28.8144 2.12921 29.5823 3.13286 29.764C3.71604 29.8697 4.33069 29.8243 4.93039 29.8131C5.01112 29.8115 5.13143 29.6228 5.15979 29.5037C5.69154 27.2847 6.2102 25.0626 6.73508 22.8421C7.77208 18.4531 8.81064 14.0643 9.85013 9.67563C9.97231 9.16016 10.2307 8.97869 10.831 8.97869C17.9738 8.97838 25.1165 8.97869 32.2589 8.97869C32.4341 8.97869 32.6092 8.97869 32.8131 8.97869V5.74515H7.41551V4.17589H12.7738C12.1903 3.5919 11.6847 3.07977 11.1677 2.57861C11.1125 2.52502 10.9894 2.52319 10.8977 2.52319C7.85998 2.52137 4.82254 2.52258 1.7848 2.52441C1.74521 2.52441 1.70563 2.5372 1.61368 2.55273V8.91444H0.0218668C0.0150096 8.78413 0.00223024 8.65594 0.00191855 8.52746C0.000671785 6.32214 0.000360079 4.11651 0.00129515 1.9112C0.00129515 1.22978 0.274649 0.959404 0.964423 0.959099C4.41267 0.958186 7.86091 0.96184 11.3088 0.953619C11.6651 0.952705 11.9344 1.06597 12.1806 1.31046C13.0443 2.16787 13.9261 3.00792 14.7861 3.86897C15.0036 4.08667 15.2253 4.17315 15.5379 4.17284C21.4903 4.16432 27.4426 4.16645 33.395 4.16675C34.2017 4.16675 34.4411 4.40303 34.4411 5.19893C34.4411 6.43966 34.4411 7.6804 34.4411 8.97869H34.4414Z" fill="#96CD32"/>
<path d="M13.1699 23.4316H24.5725V24.9482H13.1699V23.4316Z" fill="#96CD32"/>
<path d="M13.1699 20.2236H19.6469V21.7396H13.1699V20.2236Z" fill="#96CD32"/>
</svg>
