<svg width="39" height="45" viewBox="0 0 39 45" fill="none" xmlns="http://www.w3.org/2000/svg">
<path d="M18.4735 35.3596C17.8028 35.2698 17.1281 35.2022 16.4617 35.0871C12.7522 34.4471 9.57698 32.7665 6.93458 30.0973C4.42358 27.5606 2.78313 24.5352 2.15655 21.0161C1.14194 15.3154 2.55327 10.2583 6.34638 5.87482C6.40647 5.80532 6.46873 5.73583 6.5404 5.67936C6.7916 5.48208 7.05259 5.48643 7.29909 5.6808C7.53075 5.8636 7.5807 6.20494 7.3932 6.45796C7.16733 6.76238 6.90345 7.0382 6.66817 7.33574C3.91574 10.8161 2.71833 14.7764 3.09116 19.1907C3.68661 26.2376 8.94715 32.2485 15.8919 33.7554C20.8843 34.8384 25.4498 33.7945 29.5495 30.7383C29.7247 30.6077 29.8927 30.4668 30.0711 30.3409C30.4099 30.1013 30.7505 30.1288 30.9594 30.4039C31.1693 30.68 31.1205 31.0417 30.7914 31.2787C29.9803 31.863 29.1865 32.4816 28.3268 32.9865C26.4771 34.0732 24.4761 34.779 22.3539 35.1153C21.6632 35.2246 20.9639 35.28 20.2685 35.3596H18.4728H18.4735Z" fill="#96CD32"/>
<path d="M37.1893 18.7112C37.1006 19.3703 37.0318 20.0331 36.92 20.6883C36.356 23.9902 34.9451 26.8889 32.7377 29.4028C32.4467 29.7343 32.1036 29.7854 31.8314 29.5544C31.5472 29.3137 31.5418 28.9651 31.8527 28.6122C33.0494 27.2537 33.9949 25.7392 34.6946 24.0709C35.6473 21.7992 36.1055 19.4326 35.9792 16.9701C35.7494 12.4889 34.0032 8.68709 30.7342 5.61721C28.1136 3.15616 24.9937 1.70755 21.4163 1.30323C17.3474 0.84316 13.613 1.79985 10.209 4.0629C9.81695 4.32352 9.4557 4.63084 9.07237 4.90485C8.73646 5.1452 8.3897 5.11334 8.18192 4.84223C7.96112 4.5541 8.03315 4.21638 8.37268 3.9449C10.812 1.99532 13.5673 0.742532 16.6484 0.235409C25.4397 -1.21139 33.9981 4.14471 36.4563 12.6174C36.8067 13.8249 37.0467 15.0516 37.1296 16.3081C37.1368 16.4192 37.169 16.5289 37.1896 16.6393V18.7115L37.1893 18.7112Z" fill="#96CD32"/>
<path d="M22.4087 21.4744C22.4087 23.9724 22.4087 26.4704 22.4087 28.9683C22.4087 29.6568 22.2332 29.836 21.5599 29.8363C20.179 29.8371 18.7977 29.8374 17.4168 29.8363C16.8068 29.8356 16.6099 29.6398 16.6099 29.0306C16.6092 23.9771 16.6092 18.9236 16.6099 13.8701C16.6099 13.2439 16.8072 13.0499 17.4414 13.0492C18.8223 13.0481 20.2036 13.0481 21.5845 13.0492C22.2132 13.0499 22.4087 13.2457 22.4087 13.877C22.4094 16.4093 22.4087 18.9421 22.4087 21.4744ZM17.8128 14.2524V28.6313H21.1986V14.2524H17.8128Z" fill="#96CD32"/>
<path d="M19.516 5.43703C21.3201 5.44246 22.8088 6.92546 22.8197 8.72844C22.8309 10.5274 21.3034 12.0539 19.5026 12.0434C17.6862 12.0329 16.1717 10.5068 16.1996 8.71505C16.2275 6.90229 17.7155 5.4316 19.516 5.43703ZM19.5178 10.8489C20.6757 10.8442 21.6277 9.8929 21.6292 8.73857C21.6306 7.58895 20.6721 6.62791 19.5182 6.62285C18.3515 6.61742 17.3695 7.60198 17.3905 8.75522C17.4118 9.92186 18.3584 10.8536 19.5178 10.8489Z" fill="#96CD32"/>
<path d="M2.15586 35.8681C1.89995 35.8084 1.40187 35.5948 0.90235 35.1655C-0.220125 34.2012 -0.296863 32.8127 0.680462 31.675C1.6643 30.5294 3.16178 30.3726 4.37656 31.4162C4.77618 31.7597 5.04403 32.1633 5.14937 32.4142L4.54668 32.8047C4.46452 32.5738 4.28353 32.2712 3.91432 31.9545C3.06079 31.2215 2.05813 31.4557 1.39101 32.2321C0.651504 33.0932 0.749236 34.0991 1.4873 34.733C1.87171 35.0631 2.21124 35.1811 2.47621 35.2614L2.15586 35.8681Z" fill="#96CD32"/>
<path d="M5.57311 38.4516L5.85545 37.897L5.83011 37.8804C5.38923 38.0501 4.75939 38.0461 4.17662 37.6599C3.34879 37.1112 3.31259 36.2482 3.70461 35.6568C4.35978 34.6682 5.59664 34.7102 7.17085 35.7657L7.22696 35.6814C7.45102 35.3433 7.76123 34.6737 6.92507 34.1191C6.545 33.8672 6.06937 33.722 5.65889 33.7177L5.8149 33.1157C6.2985 33.1201 6.88345 33.3014 7.39889 33.6428C8.64915 34.4717 8.3878 35.5265 7.84448 36.346L6.83096 37.8749C6.59568 38.2297 6.3832 38.5873 6.24891 38.8997L5.57311 38.4516ZM6.84653 36.292C6.04693 35.7375 5.03087 35.2709 4.5042 36.0647C4.18494 36.5461 4.35471 36.987 4.73514 37.2393C5.26724 37.5922 5.82938 37.4782 6.17724 37.2104C6.25289 37.151 6.32601 37.0779 6.37632 37.0019L6.84689 36.2924L6.84653 36.292Z" fill="#96CD32"/>
<path d="M11.6501 34.6046L11.0271 35.8683L12.1724 36.433L11.8723 37.0422L10.727 36.4775L9.55749 38.8498C9.28855 39.3953 9.29072 39.7805 9.73631 40.0002C9.94553 40.1033 10.1135 40.1522 10.2268 40.1743L9.96725 40.7922C9.78119 40.7795 9.51333 40.7042 9.20457 40.5518C8.83174 40.3679 8.5903 40.1019 8.50669 39.7899C8.39592 39.4417 8.50669 39.0102 8.76224 38.4922L9.94553 36.0923L9.26393 35.7561L9.56401 35.1469L10.2456 35.4831L10.7654 34.4287L11.6501 34.605V34.6046Z" fill="#96CD32"/>
<path d="M12.692 39.4406C12.3734 40.604 12.9736 41.2968 13.83 41.5466C14.4428 41.7254 14.8439 41.7265 15.2048 41.6838L15.1718 42.3393C14.8305 42.3875 14.2694 42.3925 13.5201 42.1739C12.0704 41.7507 11.483 40.5447 11.8974 39.1239C12.3122 37.7035 13.4753 36.829 14.8471 37.2294C16.3844 37.6782 16.3982 39.1496 16.1455 40.0155C16.0945 40.1906 16.0351 40.321 16 40.406L12.692 39.4403V39.4406ZM15.381 39.5605C15.5497 39.0186 15.5635 38.1039 14.6003 37.8226C13.7344 37.57 13.122 38.257 12.8805 38.8304L15.381 39.5601V39.5605ZM16.7326 35.6895L15.1396 36.7342L14.5268 36.5554L15.789 35.4141L16.7326 35.6895Z" fill="#96CD32"/>
<path d="M21.9406 37.8909C21.9327 38.246 21.9261 38.642 21.9468 39.2396L22.0452 42.0858C22.0843 43.21 21.8852 43.9065 21.4237 44.3484C20.9629 44.8107 20.2792 44.9761 19.6613 44.9978C19.0738 45.0181 18.4208 44.8986 18.0165 44.6492L18.2159 43.9629C18.5471 44.1544 19.0597 44.3191 19.6674 44.2981C20.5789 44.2666 21.2312 43.7675 21.1884 42.5317L21.1696 41.9848L21.1493 41.9855C20.8916 42.4506 20.3776 42.8336 19.6178 42.86C18.4023 42.902 17.4956 41.899 17.4485 40.5419C17.391 38.8809 18.4422 37.9014 19.5664 37.8623C20.4174 37.8329 20.8985 38.2622 21.1255 38.66L21.1457 38.6593L21.1606 37.9184L21.9406 37.8912V37.8909ZM21.086 39.8575C21.0806 39.7054 21.0661 39.574 21.0212 39.4542C20.8413 38.9431 20.391 38.533 19.7427 38.5554C18.8917 38.5848 18.309 39.325 18.3484 40.4594C18.3817 41.4215 18.8957 42.2052 19.8578 42.1715C20.4048 42.1527 20.8891 41.7911 21.0621 41.217C21.1074 41.0632 21.1218 40.8905 21.1164 40.7385L21.086 39.8571V39.8575Z" fill="#96CD32"/>
<path d="M28.1949 38.5517C28.7606 40.2755 27.8134 41.4186 26.6865 41.7885C25.4251 42.2026 24.1488 41.5974 23.6652 40.1242C23.153 38.5641 23.8733 37.3142 25.1637 36.8907C26.5023 36.4512 27.7269 37.1267 28.1945 38.5517H28.1949ZM24.5129 39.8139C24.8481 40.8347 25.6882 41.4124 26.5164 41.1402C27.3254 40.8745 27.6823 39.9146 27.3377 38.8652C27.0786 38.0758 26.355 37.2038 25.3534 37.5324C24.3518 37.8611 24.2222 38.9278 24.5129 39.8139Z" fill="#96CD32"/>
<path d="M29.0739 37.0262C28.7869 36.5248 28.5313 36.0988 28.2783 35.7184L28.9556 35.3307L29.4605 36.1513L29.4956 36.131C29.3617 35.4487 29.6216 34.821 30.1403 34.5239C30.2283 34.4735 30.2949 34.4471 30.3752 34.4243L30.7933 35.1544C30.7043 35.1823 30.6199 35.2188 30.5142 35.2793C29.9691 35.5917 29.8185 36.2266 30.0455 36.8673C30.0882 36.9827 30.1414 37.1159 30.2167 37.2481L31.5162 39.5173L30.751 39.9553L29.0739 37.0265V37.0262Z" fill="#96CD32"/>
<path d="M31.0838 32.266C31.2731 32.5042 31.2388 32.8325 30.9539 33.0436C30.7016 33.2307 30.3776 33.1681 30.1963 32.9237C30.0091 32.6715 30.0515 32.337 30.3121 32.1441C30.5807 31.945 30.8967 32.0137 31.0838 32.266ZM34.0278 37.9059L31.1066 33.9651L31.823 33.4341L34.7441 37.3749L34.0278 37.9059Z" fill="#96CD32"/>
<path d="M35.1461 34.0985C36.012 34.9383 36.9082 34.7461 37.5398 34.1166C37.992 33.666 38.186 33.3148 38.3228 32.9782L38.8813 33.3232C38.759 33.6453 38.4929 34.1394 37.9406 34.6907C36.8713 35.7571 35.5309 35.6905 34.4863 34.6426C33.4416 33.5946 33.236 32.154 34.2477 31.1448C35.3818 30.014 36.678 30.7112 37.3147 31.3501C37.4436 31.4793 37.5294 31.594 37.5865 31.6657L35.1461 34.0989V34.0985ZM36.547 31.8C36.1535 31.391 35.3586 30.9381 34.6481 31.6465C34.0092 32.2832 34.3161 33.1509 34.7024 33.6388L36.547 31.7996V31.8Z" fill="#96CD32"/>
</svg>
