<svg width="30" height="34" viewBox="0 0 30 34" fill="none" xmlns="http://www.w3.org/2000/svg">
<path d="M6.64949 20.7659C6.48834 20.829 6.3763 20.8679 6.26877 20.9156C5.28269 21.3525 4.29265 21.7812 3.31305 22.2317C2.0216 22.8258 1.32282 23.8326 1.31012 25.226C1.285 27.9181 1.30165 30.6107 1.30109 33.3034C1.30109 33.431 1.30109 33.5584 1.30109 33.7042H0.00737884C0.00737884 33.5805 0.00737884 33.4558 0.00737884 33.331C0.00737884 30.6386 -0.0126588 27.9459 0.0133057 25.2535C0.0319324 23.3369 0.953108 21.9329 2.72236 21.1006C4.02595 20.4874 5.35494 19.9256 6.67235 19.34C6.79004 19.2876 6.90519 19.2297 7.05364 19.1589C5.85616 17.2544 5.33913 15.1939 5.31232 12.9774H2.69273V11.6963C2.80731 11.6963 2.92472 11.6965 3.04212 11.6963C4.72445 11.691 6.40763 11.7095 8.08939 11.6734C9.50502 11.643 10.9156 11.5341 12.2508 10.9979C13.1756 10.6266 13.9743 10.0755 14.6841 9.397C14.9217 9.16983 15.1673 9.01324 15.5093 9.14861C15.8689 9.29114 15.9216 9.58392 15.9174 9.92026C15.9078 10.7096 15.9143 11.4989 15.9143 12.2882C15.9143 12.3915 15.9143 12.4946 15.9143 12.6653C18.1597 11.5763 19.9586 10.0904 21.3629 8.09961C21.721 8.33174 22.0673 8.55587 22.4633 8.81254C22.0989 9.26798 21.7668 9.72204 21.3942 10.1422C19.818 11.9201 17.9234 13.2729 15.6834 14.1488C14.994 14.4184 14.6209 14.1557 14.6206 13.4259C14.6203 12.692 14.6206 11.9582 14.6206 11.1278C12.2141 12.9311 9.4387 12.9459 6.60434 12.9652C6.63312 13.4185 6.63933 13.8463 6.6907 14.2693C6.95091 16.4094 7.73323 18.3274 9.29843 19.885C12.6651 23.2352 18.1447 22.6841 20.8789 18.7294C22.0002 17.1075 22.5076 15.2979 22.5852 13.3589C22.5894 13.2525 22.5858 13.1461 22.5858 13.0168H23.8865C23.871 15.2094 23.3427 17.2495 22.161 19.1492C22.2824 19.2126 22.382 19.2722 22.4876 19.3191C23.7849 19.8955 25.0891 20.4574 26.3797 21.0482C28.233 21.8962 29.1858 23.3312 29.1954 25.3335C29.2081 27.9826 29.1985 30.632 29.1985 33.2811V33.6962H27.9048C27.9048 33.5722 27.9048 33.4465 27.9048 33.3208C27.9034 30.6066 27.9201 27.8924 27.893 25.1786C27.88 23.8806 27.2405 22.8958 26.056 22.313C24.9714 21.7793 23.8487 21.3197 22.7421 20.8287C22.7035 20.8116 22.6583 20.8092 22.5773 20.7912C22.5697 20.9067 22.5575 21.0074 22.5573 21.108C22.5556 21.8218 22.5762 22.5361 22.5443 23.2485C22.5347 23.4632 22.4376 23.7259 22.286 23.8756C19.9109 26.2193 17.5207 28.5488 15.1317 30.8792C14.773 31.2291 14.4281 31.225 14.064 30.8696C11.6829 28.5464 9.30013 26.2248 6.93284 23.8878C6.77452 23.7315 6.6732 23.458 6.66219 23.2336C6.62776 22.5322 6.64949 21.8284 6.64949 21.1256C6.64949 21.0217 6.64949 20.9175 6.64949 20.7661V20.7659ZM21.2619 20.3658C19.4181 22.3166 17.2393 23.3378 14.6056 23.3389C11.966 23.34 9.78104 22.3133 7.94348 20.3683C7.94348 21.2147 7.95393 21.958 7.93784 22.7009C7.93219 22.9684 8.00585 23.1605 8.2051 23.3538C10.254 25.3407 12.2923 27.3377 14.3344 29.3315C14.4174 29.4126 14.5074 29.487 14.5907 29.5617C14.6471 29.5267 14.6784 29.5138 14.7007 29.4923C16.8448 27.4001 18.9888 25.3076 21.1292 23.2115C21.1933 23.1487 21.2554 23.0489 21.2562 22.9653C21.2655 22.1349 21.2619 21.3043 21.2619 20.3661V20.3658Z" fill="#96CD32"/>
<path d="M25.265 10.3501H23.973C23.8869 9.64023 23.8325 8.94219 23.7136 8.25462C23.1021 4.71146 20.406 2.08966 16.7814 1.47515C14.7138 1.12475 12.6756 1.20111 10.7116 1.95319C7.77821 3.07662 6.10435 5.23941 5.49898 8.2185C5.35815 8.91186 5.32005 9.62534 5.23228 10.3485H3.97949C4.00602 9.90269 4.01336 9.46407 4.06077 9.02958C4.26284 7.18301 4.83604 5.46492 5.97142 3.95414C7.50587 1.91211 9.59121 0.725271 12.1132 0.252189C14.4996 -0.19553 16.8559 -0.075054 19.1154 0.839407C22.4693 2.1969 24.3602 4.71753 25.0107 8.16144C25.1442 8.86858 25.1798 9.59336 25.265 10.3501V10.3501Z" fill="#96CD32"/>
<path d="M19.9487 31.1092V29.8843H25.1871V31.1092H19.9487Z" fill="#96CD32"/>
</svg>
