<svg width="35" height="44" viewBox="0 0 35 44" fill="none" xmlns="http://www.w3.org/2000/svg">
<path d="M16.4699 35.0074C15.8059 34.9185 15.1379 34.8515 14.4781 34.7375C10.8056 34.1039 7.662 32.44 5.04593 29.7974C2.55994 27.286 0.935821 24.2908 0.315488 20.8067C-0.689014 15.1628 0.708258 10.1561 4.46358 5.81624C4.52307 5.74744 4.58471 5.67863 4.65567 5.62273C4.90437 5.42742 5.16275 5.43172 5.4068 5.62416C5.63616 5.80513 5.68561 6.14307 5.49998 6.39357C5.27636 6.69496 5.01511 6.96803 4.78217 7.26261C2.05715 10.7083 0.871673 14.6292 1.24079 18.9995C1.8303 25.9762 7.03845 31.9272 13.9141 33.4191C18.8567 34.4913 23.3767 33.4578 27.4356 30.4321C27.609 30.3027 27.7753 30.1633 27.952 30.0386C28.2874 29.8014 28.6247 29.8286 28.8314 30.101C29.0393 30.3744 28.9909 30.7324 28.6652 30.9671C27.8621 31.5455 27.0762 32.158 26.225 32.6579C24.3938 33.7337 22.4127 34.4325 20.3116 34.7655C19.6279 34.8737 18.9355 34.9285 18.2471 35.0074H16.4692H16.4699Z" fill="#96CD32"/>
<path d="M34.9992 18.5248C34.9114 19.1774 34.8433 19.8336 34.7326 20.4822C34.1742 23.7512 32.7773 26.621 30.592 29.1099C30.3039 29.4382 29.9641 29.4887 29.6946 29.26C29.4133 29.0217 29.4079 28.6766 29.7158 28.3272C30.9005 26.9823 31.8366 25.4829 32.5293 23.8311C33.4725 21.582 33.9262 19.239 33.8012 16.8011C33.5736 12.3645 31.8448 8.60056 28.6084 5.56126C26.0139 3.12472 22.9251 1.69054 19.3834 1.29025C15.355 0.834762 11.6577 1.78192 8.28762 4.02243C7.8995 4.28046 7.54186 4.58471 7.16235 4.85599C6.82978 5.09395 6.48647 5.06241 6.28076 4.794C6.06216 4.50874 6.13347 4.17438 6.46962 3.90561C8.88466 1.97544 11.6125 0.735136 14.663 0.233064C23.3666 -1.19933 31.8398 4.10342 34.2735 12.4917C34.6204 13.6872 34.858 14.9017 34.9401 16.1456C34.9472 16.2556 34.9791 16.3642 34.9995 16.4735V18.5252L34.9992 18.5248Z" fill="#96CD32"/>
<path d="M20.3666 21.2611C20.3666 23.7342 20.3666 26.2073 20.3666 28.6804C20.3666 29.362 20.1928 29.5394 19.5262 29.5397C18.159 29.5404 16.7915 29.5408 15.4243 29.5397C14.8205 29.539 14.6255 29.3451 14.6255 28.742C14.6248 23.7388 14.6248 18.7357 14.6255 13.7325C14.6255 13.1126 14.8208 12.9205 15.4487 12.9198C16.8159 12.9187 18.1834 12.9187 19.5506 12.9198C20.1731 12.9205 20.3666 13.1143 20.3666 13.7393C20.3673 16.2465 20.3666 18.754 20.3666 21.2611ZM15.8164 14.111V28.3467H19.1686V14.111H15.8164Z" fill="#96CD32"/>
<path d="M17.502 5.38283C19.2881 5.3882 20.7621 6.85643 20.7728 8.64145C20.7839 10.4225 19.2716 11.9338 17.4887 11.9234C15.6904 11.913 14.191 10.4021 14.2186 8.6282C14.2462 6.8335 15.7195 5.37745 17.502 5.38283ZM17.5038 10.7408C18.6502 10.7361 19.5927 9.79432 19.5941 8.65149C19.5956 7.51332 18.6466 6.56185 17.5041 6.55684C16.3491 6.55146 15.3769 7.52622 15.3977 8.66797C15.4188 9.82299 16.3559 10.7454 17.5038 10.7408Z" fill="#96CD32"/>
<path d="M2.83432 34.2101C2.13801 35.2838 2.52183 36.1768 3.30701 36.7051C3.86893 37.0831 4.27388 37.2132 4.65231 37.2863L4.40791 37.9382C4.04739 37.8769 3.47866 37.7017 2.79168 37.2397C1.46249 36.3456 1.25679 34.9372 2.133 33.6349C3.0092 32.3326 4.46668 31.8227 5.72419 32.6691C7.13364 33.6174 6.67422 35.1093 6.13989 35.9034C6.03203 36.0639 5.92989 36.1768 5.86718 36.251L2.83432 34.2105V34.2101ZM5.51383 35.1963C5.85893 34.7029 6.16677 33.7826 5.28376 33.1884C4.48997 32.6544 3.64996 33.1519 3.22136 33.6539L5.51383 35.1963Z" fill="#96CD32"/>
<path d="M6.50498 38.237C6.68094 38.5208 7.04719 38.9057 7.4758 39.1057C8.09936 39.397 8.53692 39.2218 8.71897 38.8322C8.90998 38.423 8.77129 38.0854 8.24736 37.5557C7.54102 36.858 7.36005 36.204 7.6238 35.6388C7.97859 34.8791 8.88346 34.5422 9.89656 35.0156C10.3739 35.2385 10.7291 35.5707 10.9193 35.8492L10.4137 36.3724C10.2832 36.1692 10.0152 35.8539 9.5769 35.6492C9.07053 35.4127 8.65124 35.5729 8.48747 35.9234C8.30542 36.3129 8.5061 36.6204 9.01032 37.1408C9.68298 37.8346 9.91054 38.4395 9.58299 39.1408C9.19632 39.9686 8.28033 40.2528 7.16008 39.7296C6.64367 39.4884 6.22582 39.139 5.98535 38.7892L6.50462 38.2366L6.50498 38.237Z" fill="#96CD32"/>
<path d="M11.8513 37.8592C11.9774 37.2048 12.0584 36.673 12.1308 36.1831L12.9647 36.344L12.8378 37.2285L12.859 37.2324C13.3593 36.683 14.0323 36.4297 14.8662 36.5906C16.1011 36.8289 16.8286 38.0534 16.529 39.6051C16.1746 41.4418 14.8802 42.1338 13.6771 41.9016C13.0016 41.7711 12.4677 41.3615 12.2591 40.7956L12.2379 40.7917L11.7022 43.568L10.7837 43.3906L11.8513 37.8592ZM12.5067 39.398C12.4802 39.5353 12.477 39.6661 12.4755 39.7861C12.5203 40.4627 12.9941 41.0139 13.6592 41.1422C14.6408 41.3318 15.3658 40.6394 15.5919 39.4679C15.7894 38.444 15.4202 37.4639 14.4387 37.2743C13.8054 37.1521 13.1267 37.4919 12.8128 38.1538C12.7586 38.2638 12.7006 38.3949 12.6762 38.5214L12.5071 39.3977L12.5067 39.398Z" fill="#96CD32"/>
<path d="M21.6605 41.6875L21.4906 41.0496L21.4587 41.0542C21.2308 41.5008 20.7309 41.9433 19.9969 42.0512C18.9544 42.2042 18.3148 41.5484 18.2054 40.8041C18.0227 39.5595 19.029 38.7162 21.0197 38.4349L21.0039 38.3285C20.9416 37.9031 20.7119 37.1545 19.659 37.3089C19.1802 37.3792 18.7021 37.6017 18.375 37.8888L18.0718 37.3032C18.4567 36.9642 19.0469 36.6925 19.6959 36.5976C21.2702 36.3664 21.811 37.3846 21.9626 38.4163L22.2453 40.3414C22.3109 40.7883 22.3962 41.2212 22.5116 41.5627L21.6605 41.6878V41.6875ZM21.1362 39.0803C20.112 39.209 18.9792 39.5602 19.1261 40.56C19.2153 41.1664 19.6615 41.3943 20.1403 41.3237C20.8104 41.2252 21.1734 40.7374 21.2584 40.2794C21.2763 40.1791 21.282 40.0694 21.2677 39.9738L21.1365 39.0803H21.1362Z" fill="#96CD32"/>
<path d="M28.3672 39.1924C28.1894 39.4071 27.7508 39.7784 27.1065 40.0496C25.6597 40.6585 24.3055 40.0737 23.6884 38.6072C23.0669 37.1308 23.6271 35.6353 25.1928 34.9762C25.7081 34.7594 26.2181 34.6964 26.5058 34.715L26.5911 35.4722C26.3331 35.4411 25.96 35.4694 25.4845 35.6697C24.3847 36.1327 24.132 37.1953 24.5531 38.1962C25.0204 39.306 26.0213 39.6895 26.9728 39.2892C27.4684 39.0806 27.7411 38.8144 27.9429 38.6008L28.3668 39.1921L28.3672 39.1924Z" fill="#96CD32"/>
<path d="M29.259 36.0434C30.0194 37.0723 30.9906 37.0268 31.7607 36.4774C32.3123 36.0839 32.576 35.7506 32.7774 35.422L33.3021 35.8796C33.1182 36.1957 32.7541 36.6666 32.0804 37.1475C30.7763 38.0778 29.3855 37.7757 28.4741 36.4982C27.5625 35.2202 27.5972 33.6771 28.8311 32.7966C30.214 31.81 31.4493 32.7643 32.0051 33.5434C32.1177 33.7011 32.1875 33.8359 32.2348 33.9211L29.2593 36.0441L29.259 36.0434ZM31.1236 33.881C30.7827 33.3847 30.0295 32.7729 29.1629 33.3911C28.3838 33.9469 28.5548 34.9081 28.8741 35.4854L31.1232 33.8807L31.1236 33.881Z" fill="#96CD32"/>
</svg>
