<svg width="325" height="234" viewBox="0 0 325 234" fill="none" xmlns="http://www.w3.org/2000/svg">
<path d="M279.949 83.9241C270.552 58.9493 246.439 41.1798 218.187 41.1798C211.682 41.1798 205.4 42.1236 199.453 43.8792C183.358 17.8896 154.588 0.586914 121.779 0.586914C72.0118 0.586914 31.5204 40.4085 30.465 89.9217C12.2489 100.466 0 120.163 0 142.662C0 176.273 27.2784 203.551 60.8893 203.551H121.779V183.255H60.8589C38.5024 183.255 20.2964 165.079 20.2964 142.662C20.2964 123.451 33.6617 107.326 51.624 103.125C51.0354 99.4813 50.7411 95.7367 50.7411 91.9209C50.7411 52.6879 82.5456 20.8834 121.779 20.8834C153.867 20.8834 180.983 42.1642 189.792 71.3708C197.596 65.1702 207.44 61.4763 218.187 61.4763C241.69 61.4763 261.063 79.2356 263.58 102.069H263.884C286.241 102.069 304.447 120.245 304.447 142.662C304.447 165.039 286.292 183.255 263.884 183.255H202.964V203.551H263.854C297.465 203.551 324.743 176.222 324.743 142.662C324.743 114.602 305.766 90.9771 279.949 83.9241Z" fill="#212529"/>
<path d="M162.371 91.9204L111.63 152.81H142.075V233.996H182.668V152.81H213.113L162.371 91.9204Z" fill="#212529"/>
</svg>
