<svg width="325" height="235" viewBox="0 0 325 235" fill="none" xmlns="http://www.w3.org/2000/svg">
<path d="M182.925 91.9463H142.332V173.132H111.887L162.628 234.021L213.369 173.132H182.925V91.9463Z" fill="#212529"/>
<path d="M280.206 83.95C270.808 58.9752 246.696 41.2057 218.444 41.2057C211.939 41.2057 205.657 42.1495 199.71 43.9051C183.615 17.9155 154.845 0.612793 122.036 0.612793C72.2686 0.612793 31.7772 40.4344 30.7218 89.9476C12.5057 100.492 0.256836 120.189 0.256836 142.688C0.256836 176.299 27.5353 203.577 61.1462 203.577H106.813L89.8961 183.281H61.1157C38.7592 183.281 20.5533 165.105 20.5533 142.688C20.5533 123.477 33.9185 107.352 51.8808 103.15C51.2922 99.5072 50.998 95.7625 50.998 91.9468C50.998 52.7138 82.8025 20.9092 122.036 20.9092C154.124 20.9092 181.24 42.1901 190.049 71.3967C197.853 65.1961 207.697 61.5021 218.444 61.5021C241.947 61.5021 261.32 79.2615 263.837 102.095H264.141C286.498 102.095 304.704 120.27 304.704 142.688C304.704 165.065 286.548 183.281 264.141 183.281H235.361L218.444 203.577H264.111C297.722 203.577 325 176.248 325 142.688C325 114.628 306.023 91.003 280.206 83.95Z" fill="#212529"/>
</svg>
